<svg width="399" height="550" viewBox="0 0 399 550" fill="none" xmlns="http://www.w3.org/2000/svg">
<g filter="url(#filter0_dd)">
<rect width="375" height="526" transform="translate(12 2)" fill="white"/>
<rect x="12" y="2" width="375" height="526" fill="white"/>
<path d="M53.0083 134H56.6973V126.543H60.4558L64.4529 134H68.5694L64.1646 125.926C66.5609 124.962 67.8237 122.913 67.8237 120.149C67.8237 116.261 65.318 113.636 60.6447 113.636H53.0083V134ZM56.6973 123.48V116.719H60.0779C62.8322 116.719 64.0652 117.982 64.0652 120.149C64.0652 122.317 62.8322 123.48 60.0978 123.48H56.6973Z" fill="#011440"/>
<path d="M77.6028 134.298C81.1625 134.298 83.6085 132.558 84.2449 129.903L80.8841 129.526C80.3968 130.818 79.2037 131.494 77.6525 131.494C75.3258 131.494 73.7846 129.963 73.7548 127.348H84.394V126.244C84.394 120.885 81.1724 118.528 77.4139 118.528C73.0389 118.528 70.1852 121.74 70.1852 126.453C70.1852 131.246 72.9991 134.298 77.6028 134.298ZM73.7647 124.922C73.8741 122.973 75.3159 121.332 77.4636 121.332C79.5318 121.332 80.9238 122.844 80.9437 124.922H73.7647Z" fill="#011440"/>
<path d="M87.4391 134H91.0385V124.713C91.0385 122.834 92.2914 121.561 93.8425 121.561C95.3638 121.561 96.4078 122.585 96.4078 124.156V134H99.9377V124.474C99.9377 122.754 100.962 121.561 102.702 121.561C104.154 121.561 105.307 122.416 105.307 124.305V134H108.916V123.749C108.916 120.338 106.948 118.528 104.144 118.528C101.926 118.528 100.236 119.622 99.5598 121.322H99.4007C98.8141 119.592 97.3326 118.528 95.2743 118.528C93.226 118.528 91.6948 119.582 91.0584 121.322H90.8794V118.727H87.4391V134Z" fill="#011440"/>
<path d="M119.23 134.298C123.704 134.298 126.548 131.146 126.548 126.423C126.548 121.69 123.704 118.528 119.23 118.528C114.756 118.528 111.912 121.69 111.912 126.423C111.912 131.146 114.756 134.298 119.23 134.298ZM119.25 131.415C116.774 131.415 115.561 129.207 115.561 126.413C115.561 123.619 116.774 121.382 119.25 121.382C121.686 121.382 122.899 123.619 122.899 126.413C122.899 129.207 121.686 131.415 119.25 131.415Z" fill="#011440"/>
<path d="M137.23 118.727H134.217V115.068H130.617V118.727H128.45V121.511H130.617V130.003C130.597 132.876 132.686 134.288 135.39 134.209C136.414 134.179 137.12 133.98 137.508 133.851L136.901 131.037C136.703 131.087 136.295 131.176 135.847 131.176C134.943 131.176 134.217 130.858 134.217 129.406V121.511H137.23V118.727Z" fill="#011440"/>
<path d="M146.837 134.298C150.397 134.298 152.843 132.558 153.479 129.903L150.118 129.526C149.631 130.818 148.438 131.494 146.887 131.494C144.56 131.494 143.019 129.963 142.989 127.348H153.628V126.244C153.628 120.885 150.407 118.528 146.648 118.528C142.273 118.528 139.42 121.74 139.42 126.453C139.42 131.246 142.233 134.298 146.837 134.298ZM142.999 124.922C143.108 122.973 144.55 121.332 146.698 121.332C148.766 121.332 150.158 122.844 150.178 124.922H142.999Z" fill="#011440"/>
<path d="M168.063 134H171.703L175.789 119.712H175.948L180.025 134H183.664L189.411 113.636H185.444L181.775 128.611H181.596L177.669 113.636H174.059L170.142 128.601H169.953L166.284 113.636H162.316L168.063 134Z" fill="#011440"/>
<path d="M196.914 134.298C201.388 134.298 204.232 131.146 204.232 126.423C204.232 121.69 201.388 118.528 196.914 118.528C192.439 118.528 189.595 121.69 189.595 126.423C189.595 131.146 192.439 134.298 196.914 134.298ZM196.933 131.415C194.458 131.415 193.244 129.207 193.244 126.413C193.244 123.619 194.458 121.382 196.933 121.382C199.369 121.382 200.583 123.619 200.583 126.413C200.583 129.207 199.369 131.415 196.933 131.415Z" fill="#011440"/>
<path d="M207.287 134H210.886V125.021C210.886 123.082 212.348 121.71 214.327 121.71C214.933 121.71 215.689 121.82 215.997 121.919V118.608C215.669 118.548 215.102 118.509 214.704 118.509C212.954 118.509 211.493 119.503 210.936 121.273H210.777V118.727H207.287V134Z" fill="#011440"/>
<path d="M218.388 134H221.988V128.869L223.3 127.467L227.974 134H232.279L226.015 125.32L231.931 118.727H227.725L222.236 124.862H221.988V113.636H218.388V134Z" fill="#011440"/>
<path d="M60.5851 154.727H57.4132V153.524C57.4132 152.331 57.9103 151.665 59.2527 151.665C59.8194 151.665 60.2967 151.794 60.595 151.884L61.3208 149.099C60.8535 148.94 59.8294 148.682 58.5865 148.682C55.9316 148.682 53.8137 150.203 53.8137 153.285V154.727H51.5566V157.511H53.8137V170H57.4132V157.511H60.5851V154.727Z" fill="#011440"/>
<path d="M69.4917 170.298C73.9661 170.298 76.8098 167.146 76.8098 162.423C76.8098 157.69 73.9661 154.528 69.4917 154.528C65.0172 154.528 62.1735 157.69 62.1735 162.423C62.1735 167.146 65.0172 170.298 69.4917 170.298ZM69.5115 167.415C67.0357 167.415 65.8226 165.207 65.8226 162.413C65.8226 159.619 67.0357 157.382 69.5115 157.382C71.9476 157.382 73.1607 159.619 73.1607 162.413C73.1607 165.207 71.9476 167.415 69.5115 167.415Z" fill="#011440"/>
<path d="M79.8649 170H83.4643V161.021C83.4643 159.082 84.926 157.71 86.9047 157.71C87.5112 157.71 88.2669 157.82 88.5751 157.919V154.608C88.247 154.548 87.6802 154.509 87.2825 154.509C85.5325 154.509 84.0708 155.503 83.514 157.273H83.3549V154.727H79.8649V170Z" fill="#011440"/>
<path d="M98.0708 149.636V170H101.611V155.98H101.8L107.427 169.94H110.072L115.7 156.01H115.889V170H119.429V149.636H114.915L108.869 164.392H108.631L102.585 149.636H98.0708Z" fill="#011440"/>
<path d="M127.682 170.308C130.078 170.308 131.51 169.185 132.166 167.902H132.285V170H135.746V159.778C135.746 155.741 132.454 154.528 129.541 154.528C126.329 154.528 123.863 155.96 123.068 158.744L126.429 159.222C126.787 158.178 127.801 157.283 129.561 157.283C131.231 157.283 132.146 158.138 132.146 159.639V159.699C132.146 160.733 131.062 160.783 128.368 161.071C125.405 161.389 122.571 162.274 122.571 165.714C122.571 168.717 124.768 170.308 127.682 170.308ZM128.616 167.663C127.115 167.663 126.041 166.977 126.041 165.655C126.041 164.273 127.244 163.696 128.855 163.467C129.8 163.338 131.689 163.099 132.156 162.722V164.521C132.156 166.222 130.784 167.663 128.616 167.663Z" fill="#011440"/>
<path d="M139.365 170H142.964V161.021C142.964 159.082 144.426 157.71 146.405 157.71C147.011 157.71 147.767 157.82 148.075 157.919V154.608C147.747 154.548 147.18 154.509 146.782 154.509C145.032 154.509 143.571 155.503 143.014 157.273H142.855V154.727H139.365V170Z" fill="#011440"/>
<path d="M150.466 170H154.066V164.869L155.378 163.467L160.052 170H164.357L158.093 161.32L164.009 154.727H159.803L154.314 160.862H154.066V149.636H150.466V170Z" fill="#011440"/>
<path d="M172.54 170.298C176.1 170.298 178.546 168.558 179.182 165.903L175.822 165.526C175.334 166.818 174.141 167.494 172.59 167.494C170.263 167.494 168.722 165.963 168.692 163.348H179.332V162.244C179.332 156.885 176.11 154.528 172.351 154.528C167.976 154.528 165.123 157.74 165.123 162.453C165.123 167.246 167.937 170.298 172.54 170.298ZM168.702 160.922C168.812 158.973 170.253 157.332 172.401 157.332C174.469 157.332 175.861 158.844 175.881 160.922H168.702Z" fill="#011440"/>
<path d="M190.003 154.727H186.99V151.068H183.391V154.727H181.223V157.511H183.391V166.003C183.371 168.876 185.459 170.288 188.164 170.209C189.188 170.179 189.894 169.98 190.281 169.851L189.675 167.037C189.476 167.087 189.068 167.176 188.621 167.176C187.716 167.176 186.99 166.858 186.99 165.406V157.511H190.003V154.727Z" fill="#011440"/>
<path d="M193.013 170H196.613V154.727H193.013V170ZM194.823 152.56C195.966 152.56 196.901 151.685 196.901 150.611C196.901 149.527 195.966 148.652 194.823 148.652C193.67 148.652 192.735 149.527 192.735 150.611C192.735 151.685 193.67 152.56 194.823 152.56Z" fill="#011440"/>
<path d="M203.914 161.051C203.914 158.844 205.246 157.571 207.145 157.571C209.004 157.571 210.118 158.794 210.118 160.832V170H213.717V160.276C213.727 156.616 211.639 154.528 208.487 154.528C206.2 154.528 204.629 155.622 203.933 157.322H203.754V154.727H200.314V170H203.914V161.051Z" fill="#011440"/>
<path d="M224.019 175.986C228.145 175.986 231.188 174.097 231.188 170.249V154.727H227.638V157.253H227.439C226.892 156.149 225.749 154.528 223.054 154.528C219.524 154.528 216.75 157.293 216.75 162.314C216.75 167.295 219.524 169.781 223.044 169.781C225.659 169.781 226.882 168.379 227.439 167.256H227.618V170.149C227.618 172.337 226.127 173.261 224.078 173.261C221.911 173.261 220.956 172.237 220.519 171.402L217.277 172.187C217.933 174.266 220.131 175.986 224.019 175.986ZM224.048 166.957C221.672 166.957 220.419 165.108 220.419 162.294C220.419 159.52 221.652 157.482 224.048 157.482C226.365 157.482 227.638 159.401 227.638 162.294C227.638 165.207 226.345 166.957 224.048 166.957Z" fill="#011440"/>
<path d="M241.086 152.729H247.38V170H251.039V152.729H257.333V149.636H241.086V152.729Z" fill="#011440"/>
<path d="M264.853 170.298C268.412 170.298 270.858 168.558 271.495 165.903L268.134 165.526C267.647 166.818 266.454 167.494 264.903 167.494C262.576 167.494 261.035 165.963 261.005 163.348H271.644V162.244C271.644 156.885 268.422 154.528 264.664 154.528C260.289 154.528 257.435 157.74 257.435 162.453C257.435 167.246 260.249 170.298 264.853 170.298ZM261.015 160.922C261.124 158.973 262.566 157.332 264.714 157.332C266.782 157.332 268.174 158.844 268.194 160.922H261.015Z" fill="#011440"/>
<path d="M279.084 170.308C281.48 170.308 282.912 169.185 283.568 167.902H283.688V170H287.148V159.778C287.148 155.741 283.857 154.528 280.943 154.528C277.732 154.528 275.266 155.96 274.47 158.744L277.831 159.222C278.189 158.178 279.203 157.283 280.963 157.283C282.634 157.283 283.548 158.138 283.548 159.639V159.699C283.548 160.733 282.465 160.783 279.77 161.071C276.807 161.389 273.973 162.274 273.973 165.714C273.973 168.717 276.171 170.308 279.084 170.308ZM280.019 167.663C278.517 167.663 277.443 166.977 277.443 165.655C277.443 164.273 278.646 163.696 280.257 163.467C281.202 163.338 283.091 163.099 283.558 162.722V164.521C283.558 166.222 282.186 167.663 280.019 167.663Z" fill="#011440"/>
<path d="M290.767 170H294.367V160.713C294.367 158.834 295.619 157.561 297.171 157.561C298.692 157.561 299.736 158.585 299.736 160.156V170H303.266V160.474C303.266 158.754 304.29 157.561 306.03 157.561C307.482 157.561 308.635 158.416 308.635 160.305V170H312.244V159.749C312.244 156.338 310.276 154.528 307.472 154.528C305.254 154.528 303.564 155.622 302.888 157.322H302.729C302.142 155.592 300.661 154.528 298.602 154.528C296.554 154.528 295.023 155.582 294.387 157.322H294.208V154.727H290.767V170Z" fill="#011440"/>
<path d="M327.967 158.764C327.47 156.179 325.402 154.528 321.822 154.528C318.143 154.528 315.638 156.338 315.648 159.162C315.638 161.389 317.01 162.861 319.943 163.467L322.548 164.014C323.95 164.322 324.606 164.889 324.606 165.754C324.606 166.798 323.473 167.584 321.763 167.584C320.112 167.584 319.038 166.868 318.73 165.496L315.22 165.834C315.667 168.638 318.024 170.298 321.773 170.298C325.591 170.298 328.285 168.32 328.295 165.426C328.285 163.249 326.883 161.916 324 161.29L321.395 160.733C319.844 160.385 319.227 159.848 319.237 158.963C319.227 157.929 320.371 157.213 321.872 157.213C323.533 157.213 324.407 158.118 324.686 159.122L327.967 158.764Z" fill="#011440"/>
<g opacity="0.7">
<path d="M52.2329 203H53.4659V198.446H57.8806V197.352H53.4659V193.912H58.338V192.818H52.2329V203Z" fill="#011440"/>
<path d="M62.8323 203.159C64.9005 203.159 66.2926 201.588 66.2926 199.222C66.2926 196.835 64.9005 195.264 62.8323 195.264C60.7642 195.264 59.3721 196.835 59.3721 199.222C59.3721 201.588 60.7642 203.159 62.8323 203.159ZM62.8323 202.105C61.2613 202.105 60.5454 200.753 60.5454 199.222C60.5454 197.69 61.2613 196.318 62.8323 196.318C64.4034 196.318 65.1193 197.69 65.1193 199.222C65.1193 200.753 64.4034 202.105 62.8323 202.105Z" fill="#011440"/>
<path d="M68.0836 203H69.2569V198.168C69.2569 197.134 70.0722 196.378 71.1859 196.378C71.4991 196.378 71.8222 196.438 71.9018 196.457V195.264C71.7675 195.254 71.4593 195.244 71.2853 195.244C70.3705 195.244 69.5751 195.761 69.2967 196.517H69.2171V195.364H68.0836V203Z" fill="#011440"/>
<path d="M79.4772 203.179C80.8096 203.179 81.5056 202.463 81.7443 201.966H81.8039V203H82.9772V197.969C82.9772 195.543 81.1278 195.264 80.1534 195.264C79 195.264 77.6875 195.662 77.0909 197.054L78.2045 197.452C78.463 196.895 79.0745 196.298 80.1931 196.298C81.272 196.298 81.8039 196.87 81.8039 197.849V197.889C81.8039 198.456 81.2272 198.406 79.8352 198.585C78.4183 198.769 76.8721 199.082 76.8721 200.832C76.8721 202.324 78.0255 203.179 79.4772 203.179ZM79.6562 202.125C78.7215 202.125 78.0454 201.707 78.0454 200.892C78.0454 199.997 78.8608 199.719 79.7755 199.599C80.2727 199.54 81.6051 199.401 81.8039 199.162V200.236C81.8039 201.19 81.0483 202.125 79.6562 202.125Z" fill="#011440"/>
<path d="M90.2295 192.818H89.0562V203H90.2295V192.818Z" fill="#011440"/>
<path d="M95.5802 203.159C97.1313 203.159 98.2649 202.384 98.6228 201.23L97.4893 200.912C97.191 201.707 96.5 202.105 95.5802 202.105C94.2031 202.105 93.2535 201.215 93.1988 199.58H98.7421V199.082C98.7421 196.239 97.0518 195.264 95.4609 195.264C93.3927 195.264 92.0205 196.895 92.0205 199.241C92.0205 201.588 93.3728 203.159 95.5802 203.159ZM93.1988 198.565C93.2784 197.377 94.1186 196.318 95.4609 196.318C96.7336 196.318 97.549 197.273 97.549 198.565H93.1988Z" fill="#011440"/>
<path d="M105.936 197.074C105.568 195.99 104.743 195.264 103.231 195.264C101.621 195.264 100.428 196.179 100.428 197.472C100.428 198.526 101.054 199.232 102.456 199.56L103.729 199.858C104.499 200.037 104.862 200.405 104.862 200.932C104.862 201.588 104.166 202.125 103.072 202.125C102.113 202.125 101.511 201.712 101.303 200.892L100.189 201.17C100.462 202.468 101.531 203.159 103.092 203.159C104.867 203.159 106.075 202.19 106.075 200.872C106.075 199.808 105.409 199.137 104.047 198.804L102.913 198.526C102.008 198.302 101.601 197.999 101.601 197.412C101.601 196.756 102.297 196.278 103.231 196.278C104.256 196.278 104.678 196.845 104.882 197.372L105.936 197.074Z" fill="#011440"/>
<path d="M113.25 197.074C112.883 195.99 112.057 195.264 110.546 195.264C108.935 195.264 107.742 196.179 107.742 197.472C107.742 198.526 108.368 199.232 109.77 199.56L111.043 199.858C111.814 200.037 112.177 200.405 112.177 200.932C112.177 201.588 111.481 202.125 110.387 202.125C109.427 202.125 108.826 201.712 108.617 200.892L107.503 201.17C107.777 202.468 108.846 203.159 110.407 203.159C112.182 203.159 113.39 202.19 113.39 200.872C113.39 199.808 112.723 199.137 111.361 198.804L110.228 198.526C109.323 198.302 108.915 197.999 108.915 197.412C108.915 196.756 109.611 196.278 110.546 196.278C111.57 196.278 111.993 196.845 112.197 197.372L113.25 197.074Z" fill="#011440"/>
<path d="M119.252 203H120.386V201.827H120.525C120.784 202.244 121.281 203.159 122.752 203.159C124.662 203.159 125.994 201.628 125.994 199.202C125.994 196.795 124.662 195.264 122.733 195.264C121.241 195.264 120.784 196.179 120.525 196.577H120.426V192.818H119.252V203ZM120.406 199.182C120.406 197.472 121.162 196.318 122.593 196.318C124.085 196.318 124.821 197.571 124.821 199.182C124.821 200.813 124.065 202.105 122.593 202.105C121.181 202.105 120.406 200.912 120.406 199.182Z" fill="#011440"/>
<path d="M130.891 203.159C132.959 203.159 134.351 201.588 134.351 199.222C134.351 196.835 132.959 195.264 130.891 195.264C128.823 195.264 127.431 196.835 127.431 199.222C127.431 201.588 128.823 203.159 130.891 203.159ZM130.891 202.105C129.32 202.105 128.604 200.753 128.604 199.222C128.604 197.69 129.32 196.318 130.891 196.318C132.462 196.318 133.178 197.69 133.178 199.222C133.178 200.753 132.462 202.105 130.891 202.105Z" fill="#011440"/>
<path d="M136.142 203H137.315V198.168C137.315 197.134 138.131 196.378 139.244 196.378C139.558 196.378 139.881 196.438 139.96 196.457V195.264C139.826 195.254 139.518 195.244 139.344 195.244C138.429 195.244 137.634 195.761 137.355 196.517H137.276V195.364H136.142V203Z" fill="#011440"/>
<path d="M141.351 203H142.524V195.364H141.351V203ZM141.948 194.091C142.405 194.091 142.783 193.733 142.783 193.295C142.783 192.858 142.405 192.5 141.948 192.5C141.49 192.5 141.113 192.858 141.113 193.295C141.113 193.733 141.49 194.091 141.948 194.091Z" fill="#011440"/>
<path d="M145.847 198.406C145.847 197.074 146.672 196.318 147.796 196.318C148.884 196.318 149.546 197.029 149.546 198.227V203H150.719V198.148C150.719 196.199 149.68 195.264 148.134 195.264C146.98 195.264 146.264 195.781 145.906 196.557H145.807V195.364H144.673V203H145.847V198.406Z" fill="#011440"/>
<path d="M155.945 206.023C157.775 206.023 159.246 205.188 159.246 203.219V195.364H158.113V196.577H157.994C157.735 196.179 157.258 195.264 155.766 195.264C153.837 195.264 152.505 196.795 152.505 199.142C152.505 201.528 153.897 202.881 155.746 202.881C157.238 202.881 157.715 202.006 157.974 201.588H158.073V203.139C158.073 204.412 157.178 204.989 155.945 204.989C154.558 204.989 154.071 204.258 153.758 203.835L152.823 204.491C153.3 205.292 154.24 206.023 155.945 206.023ZM155.905 201.827C154.434 201.827 153.678 200.713 153.678 199.122C153.678 197.571 154.414 196.318 155.905 196.318C157.337 196.318 158.093 197.472 158.093 199.122C158.093 200.813 157.317 201.827 155.905 201.827Z" fill="#011440"/>
<path d="M166.505 192.818H165.332V203H166.505V192.818Z" fill="#011440"/>
<path d="M171.756 203.159C173.824 203.159 175.216 201.588 175.216 199.222C175.216 196.835 173.824 195.264 171.756 195.264C169.688 195.264 168.296 196.835 168.296 199.222C168.296 201.588 169.688 203.159 171.756 203.159ZM171.756 202.105C170.185 202.105 169.469 200.753 169.469 199.222C169.469 197.69 170.185 196.318 171.756 196.318C173.327 196.318 174.043 197.69 174.043 199.222C174.043 200.753 173.327 202.105 171.756 202.105Z" fill="#011440"/>
<path d="M180.11 203.159C181.8 203.159 182.914 202.125 183.113 200.773H181.939C181.72 201.608 181.024 202.105 180.11 202.105C178.718 202.105 177.823 200.952 177.823 199.182C177.823 197.452 178.738 196.318 180.11 196.318C181.144 196.318 181.76 196.955 181.939 197.651H183.113C182.914 196.219 181.701 195.264 180.09 195.264C178.022 195.264 176.649 196.895 176.649 199.222C176.649 201.509 177.962 203.159 180.11 203.159Z" fill="#011440"/>
<path d="M184.828 203H186.001V200.141L186.821 199.381L189.68 203H191.171L187.706 198.625L190.933 195.364H189.481L186.14 198.764H186.001V192.818H184.828V203Z" fill="#011440"/>
<path d="M195.012 203.159C196.484 203.159 196.981 202.244 197.239 201.827H197.379V203H198.512V192.818H197.339V196.577H197.239C196.981 196.179 196.523 195.264 195.032 195.264C193.103 195.264 191.771 196.795 191.771 199.202C191.771 201.628 193.103 203.159 195.012 203.159ZM195.171 202.105C193.7 202.105 192.944 200.813 192.944 199.182C192.944 197.571 193.68 196.318 195.171 196.318C196.603 196.318 197.359 197.472 197.359 199.182C197.359 200.912 196.583 202.105 195.171 202.105Z" fill="#011440"/>
<path d="M203.926 203.159C205.994 203.159 207.386 201.588 207.386 199.222C207.386 196.835 205.994 195.264 203.926 195.264C201.858 195.264 200.466 196.835 200.466 199.222C200.466 201.588 201.858 203.159 203.926 203.159ZM203.926 202.105C202.355 202.105 201.639 200.753 201.639 199.222C201.639 197.69 202.355 196.318 203.926 196.318C205.497 196.318 206.213 197.69 206.213 199.222C206.213 200.753 205.497 202.105 203.926 202.105Z" fill="#011440"/>
<path d="M210.648 203H211.801L213.472 197.134H213.591L215.261 203H216.415L218.741 195.364H217.508L215.858 201.19H215.778L214.168 195.364H212.915L211.284 201.21H211.204L209.554 195.364H208.321L210.648 203Z" fill="#011440"/>
<path d="M221.466 198.406C221.466 197.074 222.291 196.318 223.415 196.318C224.504 196.318 225.165 197.029 225.165 198.227V203H226.338V198.148C226.338 196.199 225.299 195.264 223.753 195.264C222.599 195.264 221.883 195.781 221.526 196.557H221.426V195.364H220.293V203H221.466V198.406Z" fill="#011440"/>
<path d="M233.593 192.818H232.42V203H233.593V192.818Z" fill="#011440"/>
<path d="M235.742 203H236.915V195.364H235.742V203ZM236.338 194.091C236.796 194.091 237.174 193.733 237.174 193.295C237.174 192.858 236.796 192.5 236.338 192.5C235.881 192.5 235.503 192.858 235.503 193.295C235.503 193.733 235.881 194.091 236.338 194.091Z" fill="#011440"/>
<path d="M242.465 195.364H240.754V194.588C240.754 193.832 241.073 193.435 241.848 193.435C242.186 193.435 242.385 193.514 242.504 193.554L242.842 192.54C242.663 192.46 242.306 192.341 241.729 192.341C240.635 192.341 239.581 192.997 239.581 194.31V195.364H238.348V196.358H239.581V203H240.754V196.358H242.465V195.364Z" fill="#011440"/>
<path d="M246.996 203.159C248.547 203.159 249.681 202.384 250.039 201.23L248.905 200.912C248.607 201.707 247.916 202.105 246.996 202.105C245.619 202.105 244.67 201.215 244.615 199.58H250.158V199.082C250.158 196.239 248.468 195.264 246.877 195.264C244.809 195.264 243.437 196.895 243.437 199.241C243.437 201.588 244.789 203.159 246.996 203.159ZM244.615 198.565C244.694 197.377 245.535 196.318 246.877 196.318C248.15 196.318 248.965 197.273 248.965 198.565H244.615Z" fill="#011440"/>
</g>
<path d="M68.6324 47.4799L69.8667 46.2643C72.2905 43.8771 76.2366 43.818 78.6743 46.1914C79.598 47.0928 80.2119 48.2565 80.4297 49.519C80.6474 50.7816 80.4581 52.0797 79.8883 53.2308C79.615 53.7807 79.523 54.401 79.6249 55.0049C79.7269 55.6088 80.0178 56.1663 80.4571 56.5995C81.265 55.8021 81.9052 54.8557 82.3415 53.8144C82.7778 52.7732 83.0016 51.6575 83 50.531C82.9982 49.4046 82.7715 48.2895 82.3321 47.2495C81.8928 46.2095 81.2497 45.2649 80.4397 44.4697C77.0309 41.1313 71.4978 41.1977 68.0985 44.5455L56.3336 56.1323L55.3665 55.1797C52.9015 52.752 52.8858 48.7837 55.3942 46.3992C56.3227 45.5193 57.5057 44.9448 58.7798 44.7552C60.0539 44.5656 61.3563 44.7702 62.5073 45.3406C63.0327 45.6058 63.6297 45.7006 64.2131 45.6117C64.7964 45.5227 65.3363 45.2544 65.7556 44.8451L65.7856 44.8157C65.795 44.8066 65.8024 44.7957 65.8074 44.7838C65.8125 44.7718 65.8151 44.759 65.8151 44.746C65.8151 44.7331 65.8125 44.7202 65.8074 44.7083C65.8024 44.6963 65.795 44.6855 65.7856 44.6763C64.1664 43.1216 61.9965 42.2483 59.735 42.2412C57.4736 42.2342 55.2981 43.0939 53.6689 44.6385C50.1593 47.9753 50.1719 53.5241 53.6213 56.9213L65.3827 68.505L64.1333 69.7355C61.7095 72.1227 57.7633 72.1818 55.3257 69.8084C54.402 68.9071 53.7881 67.7433 53.5704 66.4808C53.3526 65.2182 53.5418 63.9202 54.1115 62.769C54.3849 62.2191 54.477 61.5988 54.375 60.995C54.2731 60.391 53.9821 59.8334 53.5429 59.4003C52.7351 60.1978 52.0948 61.1441 51.6584 62.1853C51.2221 63.2267 50.9984 64.3423 51 65.4688C51.0016 66.5952 51.2286 67.7103 51.6679 68.7503C52.1072 69.7904 52.7503 70.735 53.5603 71.5301C56.969 74.8687 62.5022 74.8024 65.9015 71.4545L77.6816 59.8522L78.6524 60.8084C81.0763 63.1956 81.1363 67.082 78.7264 69.4828C77.8113 70.3927 76.6297 70.9971 75.3478 71.2117C74.0659 71.4262 72.7479 71.2397 71.579 70.6785C71.0205 70.4092 70.3905 70.3184 69.777 70.4191C69.1636 70.5196 68.5973 70.8064 68.1576 71.2394C68.9673 72.035 69.9281 72.6657 70.9853 73.0955C72.0426 73.5252 73.1753 73.7456 74.3192 73.744C75.4628 73.7423 76.5951 73.5187 77.651 73.0861C78.707 72.6534 79.6661 72.02 80.4735 71.2222C83.8632 67.8651 83.7958 62.4154 80.3967 59.0677L68.6324 47.4799ZM67.139 66.7745L58.0904 57.8627L66.8755 49.2105L75.9241 58.1223L67.139 66.7745Z" fill="#444BF7"/>
<rect x="12" y="265" width="375" height="263" fill="#565CF8"/>
<path d="M387 433H291L387 526.5V433Z" fill="#7375FF"/>
<path d="M387 433H291L387 526.5V433Z" fill="#7375FF"/>
<path d="M195 433L291 433L195 340L195 433Z" fill="#1C1ED0"/>
<path d="M100 433L100 528L193 433L100 433Z" fill="#1C1ED0"/>
<path d="M103.583 342C53.0033 342 12 382.742 12 433H195.167C195.167 382.742 154.163 342 103.583 342Z" fill="#7375FF"/>
<path d="M104.167 372.333C70.6614 372.333 43.5 399.495 43.5 433H164.833C164.833 399.495 137.672 372.333 104.167 372.333Z" fill="#565CF8"/>
<path d="M104.167 372.333C70.6614 372.333 43.5 399.495 43.5 433H164.833C164.833 399.495 137.672 372.333 104.167 372.333Z" fill="#565CF8"/>
<path d="M104.167 372.333C70.6614 372.333 43.5 399.495 43.5 433H164.833C164.833 399.495 137.672 372.333 104.167 372.333Z" fill="#565CF8"/>
<path d="M104.167 391C80.9705 391 62.1665 409.804 62.1665 433H146.167C146.167 409.804 127.362 391 104.167 391Z" fill="#7779F4"/>
<mask id="mask0" mask-type="alpha" maskUnits="userSpaceOnUse" x="62" y="391" width="85" height="42">
<path d="M104.167 391C80.9705 391 62.1665 409.804 62.1665 433H146.167C146.167 409.804 127.362 391 104.167 391Z" fill="#1C1ED0"/>
</mask>
<g mask="url(#mask0)">
<path d="M104.167 391C80.9705 391 62.1665 409.804 62.1665 433H146.167C146.167 409.804 127.362 391 104.167 391Z" fill="#1C1ED0"/>
<rect x="97.1665" y="434.167" width="43.1667" height="1.16667" transform="rotate(-90 97.1665 434.167)" fill="#565CF8"/>
<rect x="99.5" y="434.167" width="43.1667" height="1.16667" transform="rotate(-90 99.5 434.167)" fill="#565CF8"/>
<rect x="101.833" y="434.167" width="43.1667" height="1.16667" transform="rotate(-90 101.833 434.167)" fill="#565CF8"/>
<rect x="104.167" y="434.167" width="43.1667" height="1.16667" transform="rotate(-90 104.167 434.167)" fill="#565CF8"/>
<rect x="106.5" y="434.167" width="43.1667" height="1.16667" transform="rotate(-90 106.5 434.167)" fill="#565CF8"/>
<rect x="108.833" y="434.167" width="43.1667" height="1.16667" transform="rotate(-90 108.833 434.167)" fill="#565CF8"/>
<rect x="111.167" y="434.167" width="43.1667" height="1.16667" transform="rotate(-90 111.167 434.167)" fill="#565CF8"/>
<rect x="113.5" y="434.167" width="43.1667" height="1.16667" transform="rotate(-90 113.5 434.167)" fill="#565CF8"/>
<rect x="115.833" y="434.167" width="43.1667" height="1.16667" transform="rotate(-90 115.833 434.167)" fill="#565CF8"/>
<rect x="118.167" y="434.167" width="43.1667" height="1.16667" transform="rotate(-90 118.167 434.167)" fill="#565CF8"/>
<rect x="120.5" y="434.167" width="43.1667" height="1.16667" transform="rotate(-90 120.5 434.167)" fill="#565CF8"/>
<rect x="122.833" y="434.167" width="43.1667" height="1.16667" transform="rotate(-90 122.833 434.167)" fill="#565CF8"/>
<rect x="125.167" y="434.167" width="43.1667" height="1.16667" transform="rotate(-90 125.167 434.167)" fill="#565CF8"/>
<rect x="127.5" y="434.167" width="43.1667" height="1.16667" transform="rotate(-90 127.5 434.167)" fill="#565CF8"/>
<rect x="129.833" y="434.167" width="43.1667" height="1.16667" transform="rotate(-90 129.833 434.167)" fill="#565CF8"/>
<rect x="132.167" y="434.167" width="43.1667" height="1.16667" transform="rotate(-90 132.167 434.167)" fill="#565CF8"/>
<rect x="134.5" y="434.167" width="43.1667" height="1.16667" transform="rotate(-90 134.5 434.167)" fill="#565CF8"/>
<rect x="136.833" y="434.167" width="43.1667" height="1.16667" transform="rotate(-90 136.833 434.167)" fill="#565CF8"/>
<rect x="139.167" y="434.167" width="43.1667" height="1.16667" transform="rotate(-90 139.167 434.167)" fill="#565CF8"/>
<rect x="141.5" y="434.167" width="43.1667" height="1.16667" transform="rotate(-90 141.5 434.167)" fill="#565CF8"/>
<rect x="143.833" y="434.167" width="43.1667" height="1.16667" transform="rotate(-90 143.833 434.167)" fill="#565CF8"/>
</g>
<path d="M104.167 391C80.9705 391 62.1665 409.804 62.1665 433H104.167V391Z" fill="#7375FF"/>
<path d="M268 265C227.683 265 195 298.579 195 340H268V265Z" fill="#7375FF"/>
<path d="M12 340L12 433L105 340L12 340Z" fill="#3D40D9"/>
<rect x="12" y="265" width="92" height="75" fill="#7375FF"/>
<rect x="12" y="266" width="45" height="1" fill="#565CF8"/>
<rect x="12" y="268" width="45" height="1" fill="#565CF8"/>
<rect x="12" y="270" width="45" height="1" fill="#565CF8"/>
<rect x="12" y="272" width="45" height="1" fill="#565CF8"/>
<rect x="12" y="274" width="45" height="1" fill="#565CF8"/>
<rect x="12" y="276" width="45" height="1" fill="#565CF8"/>
<rect x="12" y="278" width="45" height="1" fill="#565CF8"/>
<rect x="12" y="280" width="45" height="1" fill="#565CF8"/>
<rect x="12" y="282" width="45" height="1" fill="#565CF8"/>
<rect x="12" y="284" width="45" height="1" fill="#565CF8"/>
<rect x="12" y="286" width="45" height="1" fill="#565CF8"/>
<rect x="12" y="288" width="45" height="1" fill="#565CF8"/>
<rect x="12" y="290" width="45" height="1" fill="#565CF8"/>
<rect x="12" y="292" width="45" height="1" fill="#565CF8"/>
<rect x="12" y="294" width="45" height="1" fill="#565CF8"/>
<rect x="12" y="296" width="45" height="1" fill="#565CF8"/>
<rect x="12" y="298" width="45" height="1" fill="#565CF8"/>
<rect x="12" y="300" width="45" height="1" fill="#565CF8"/>
<rect x="12" y="302" width="45" height="1" fill="#565CF8"/>
<rect x="12" y="304" width="45" height="1" fill="#565CF8"/>
<rect x="12" y="306" width="45" height="1" fill="#565CF8"/>
<rect x="12" y="308" width="45" height="1" fill="#565CF8"/>
<rect x="12" y="310" width="45" height="1" fill="#565CF8"/>
<rect x="12" y="312" width="45" height="1" fill="#565CF8"/>
<rect x="12" y="314" width="45" height="1" fill="#565CF8"/>
<rect x="12" y="316" width="45" height="1" fill="#565CF8"/>
<rect x="12" y="318" width="45" height="1" fill="#565CF8"/>
<rect x="12" y="320" width="45" height="1" fill="#565CF8"/>
<rect x="12" y="322" width="45" height="1" fill="#565CF8"/>
<rect x="12" y="324" width="45" height="1" fill="#565CF8"/>
<rect x="12" y="326" width="45" height="1" fill="#565CF8"/>
<rect x="12" y="328" width="45" height="1" fill="#565CF8"/>
<rect x="12" y="330" width="45" height="1" fill="#565CF8"/>
<rect x="12" y="332" width="45" height="1" fill="#565CF8"/>
<rect x="12" y="334" width="45" height="1" fill="#565CF8"/>
<rect x="12" y="336" width="45" height="1" fill="#565CF8"/>
<rect x="12" y="338" width="45" height="1" fill="#565CF8"/>
<rect x="12" y="340" width="45" height="1" fill="#565CF8"/>
<circle cx="57" cy="303" r="38" transform="rotate(-90 57 303)" fill="#565CF8"/>
<path d="M19 303C19 323.987 36.0132 341 57 341L57 265C36.0132 265 19 282.013 19 303Z" fill="#3D40D9"/>
<ellipse cx="57" cy="303" rx="12" ry="12" transform="rotate(-90 57 303)" fill="#7375FF"/>
<rect x="194" y="433" width="97" height="5" fill="#7375FF"/>
<rect x="194" y="442" width="97" height="5" fill="#7375FF"/>
<rect x="194" y="451" width="97" height="5" fill="#7375FF"/>
<rect x="194" y="460" width="97" height="5" fill="#7375FF"/>
<rect x="194" y="469" width="97" height="5" fill="#7375FF"/>
<rect x="194" y="478" width="97" height="5" fill="#7375FF"/>
<rect x="194" y="487" width="97" height="5" fill="#7375FF"/>
<rect x="194" y="496" width="97" height="5" fill="#7375FF"/>
<rect x="194" y="505" width="97" height="5" fill="#7375FF"/>
<rect x="194" y="514" width="97" height="5" fill="#7375FF"/>
<rect x="194" y="523" width="97" height="5" fill="#7375FF"/>
<g style="mix-blend-mode:multiply">
<rect x="12" y="340" width="375" height="1" fill="#A09EFD"/>
<rect x="12" y="342" width="375" height="1" fill="#A09EFD"/>
<rect x="12" y="344" width="375" height="1" fill="#A09EFD"/>
<rect x="12" y="346" width="375" height="1" fill="#A09EFD"/>
<rect x="12" y="348" width="375" height="1" fill="#A09EFD"/>
<rect x="12" y="350" width="375" height="1" fill="#A09EFD"/>
<rect x="12" y="352" width="375" height="1" fill="#A09EFD"/>
<rect x="12" y="354" width="375" height="1" fill="#A09EFD"/>
<rect x="12" y="356" width="375" height="1" fill="#A09EFD"/>
<rect x="12" y="358" width="375" height="1" fill="#A09EFD"/>
<rect x="12" y="360" width="375" height="1" fill="#A09EFD"/>
<rect x="12" y="362" width="375" height="1" fill="#A09EFD"/>
<rect x="12" y="364" width="375" height="1" fill="#A09EFD"/>
<rect x="12" y="366" width="375" height="1" fill="#A09EFD"/>
<rect x="12" y="368" width="375" height="1" fill="#A09EFD"/>
<rect x="12" y="370" width="375" height="1" fill="#A09EFD"/>
<rect x="12" y="372" width="375" height="1" fill="#A09EFD"/>
<rect x="12" y="374" width="375" height="1" fill="#A09EFD"/>
<rect x="12" y="376" width="375" height="1" fill="#A09EFD"/>
<rect x="12" y="378" width="375" height="1" fill="#A09EFD"/>
<rect x="12" y="380" width="375" height="1" fill="#A09EFD"/>
<rect x="12" y="382" width="375" height="1" fill="#A09EFD"/>
<rect x="12" y="384" width="375" height="1" fill="#A09EFD"/>
</g>
<path d="M291 528L291 434L194 528L291 528Z" fill="#1C1ED0"/>
<rect x="12" y="433" width="88" height="95" fill="#7375FF"/>
<rect x="12" y="433" width="43" height="95" fill="#565CF8"/>
<g style="mix-blend-mode:multiply">
<path d="M54.944 476.987L100 433L12 433L54.944 476.987Z" fill="#3D40D9"/>
</g>
<rect x="12" y="479" width="43" height="49" fill="#2E31D3"/>
<g style="mix-blend-mode:multiply">
<rect x="59" y="528" width="49" height="1" transform="rotate(-90 59 528)" fill="#A09EFD"/>
<rect x="57" y="528" width="49" height="1" transform="rotate(-90 57 528)" fill="#A09EFD"/>
<rect x="55" y="528" width="49" height="1" transform="rotate(-90 55 528)" fill="#A09EFD"/>
<rect x="61" y="528" width="49" height="1" transform="rotate(-90 61 528)" fill="#A09EFD"/>
<rect x="63" y="528" width="49" height="1" transform="rotate(-90 63 528)" fill="#A09EFD"/>
<rect x="65" y="528" width="49" height="1" transform="rotate(-90 65 528)" fill="#A09EFD"/>
<rect x="67" y="528" width="49" height="1" transform="rotate(-90 67 528)" fill="#A09EFD"/>
<rect x="69" y="528" width="49" height="1" transform="rotate(-90 69 528)" fill="#A09EFD"/>
<rect x="71" y="528" width="49" height="1" transform="rotate(-90 71 528)" fill="#A09EFD"/>
<rect x="73" y="528" width="49" height="1" transform="rotate(-90 73 528)" fill="#A09EFD"/>
<rect x="75" y="528" width="49" height="1" transform="rotate(-90 75 528)" fill="#A09EFD"/>
<rect x="77" y="528" width="49" height="1" transform="rotate(-90 77 528)" fill="#A09EFD"/>
<rect x="79" y="528" width="49" height="1" transform="rotate(-90 79 528)" fill="#A09EFD"/>
<rect x="81" y="528" width="49" height="1" transform="rotate(-90 81 528)" fill="#A09EFD"/>
<rect x="83" y="528" width="49" height="1" transform="rotate(-90 83 528)" fill="#A09EFD"/>
<rect x="85" y="528" width="49" height="1" transform="rotate(-90 85 528)" fill="#A09EFD"/>
<rect x="87" y="528" width="49" height="1" transform="rotate(-90 87 528)" fill="#A09EFD"/>
<rect x="89" y="528" width="49" height="1" transform="rotate(-90 89 528)" fill="#A09EFD"/>
<rect x="91" y="528" width="49" height="1" transform="rotate(-90 91 528)" fill="#A09EFD"/>
<rect x="93" y="528" width="49" height="1" transform="rotate(-90 93 528)" fill="#A09EFD"/>
<rect x="95" y="528" width="49" height="1" transform="rotate(-90 95 528)" fill="#A09EFD"/>
<rect x="97" y="528" width="49" height="1" transform="rotate(-90 97 528)" fill="#A09EFD"/>
<rect x="99" y="528" width="49" height="1" transform="rotate(-90 99 528)" fill="#A09EFD"/>
</g>
<rect x="104" y="265" width="91" height="75" fill="#1C1ED0"/>
<mask id="mask1" mask-type="alpha" maskUnits="userSpaceOnUse" x="250" y="265" width="136" height="74">
<path d="M318 265C280.445 265 250 298.131 250 339H386C386 298.131 355.555 265 318 265Z" fill="#1C1ED0"/>
</mask>
<g mask="url(#mask1)">
<path d="M386 339C386 298.131 355.555 265 318 265V339H386Z" fill="#7375FF"/>
<rect x="306.667" y="341.056" width="76.0556" height="1.88889" transform="rotate(-90 306.667 341.056)" fill="#565CF8"/>
<rect x="310.444" y="341.056" width="76.0556" height="1.88889" transform="rotate(-90 310.444 341.056)" fill="#565CF8"/>
<rect x="314.222" y="341.056" width="76.0556" height="1.88889" transform="rotate(-90 314.222 341.056)" fill="#565CF8"/>
<rect x="318" y="341.056" width="76.0556" height="1.88889" transform="rotate(-90 318 341.056)" fill="#565CF8"/>
<rect x="321.778" y="341.056" width="76.0556" height="1.88889" transform="rotate(-90 321.778 341.056)" fill="#565CF8"/>
<rect x="325.556" y="341.056" width="76.0556" height="1.88889" transform="rotate(-90 325.556 341.056)" fill="#565CF8"/>
<rect x="329.333" y="341.056" width="76.0556" height="1.88889" transform="rotate(-90 329.333 341.056)" fill="#565CF8"/>
<rect x="333.111" y="341.056" width="76.0556" height="1.88889" transform="rotate(-90 333.111 341.056)" fill="#565CF8"/>
<rect x="336.889" y="341.056" width="76.0556" height="1.88889" transform="rotate(-90 336.889 341.056)" fill="#565CF8"/>
<rect x="340.667" y="341.056" width="76.0556" height="1.88889" transform="rotate(-90 340.667 341.056)" fill="#565CF8"/>
<rect x="344.444" y="341.056" width="76.0556" height="1.88889" transform="rotate(-90 344.444 341.056)" fill="#565CF8"/>
<rect x="348.222" y="341.056" width="76.0556" height="1.88889" transform="rotate(-90 348.222 341.056)" fill="#565CF8"/>
<rect x="352" y="341.056" width="76.0556" height="1.88889" transform="rotate(-90 352 341.056)" fill="#565CF8"/>
<rect x="355.778" y="341.056" width="76.0556" height="1.88889" transform="rotate(-90 355.778 341.056)" fill="#565CF8"/>
<rect x="359.556" y="341.056" width="76.0556" height="1.88889" transform="rotate(-90 359.556 341.056)" fill="#565CF8"/>
<rect x="363.333" y="341.056" width="76.0556" height="1.88889" transform="rotate(-90 363.333 341.056)" fill="#565CF8"/>
<rect x="367.111" y="341.056" width="76.0556" height="1.88889" transform="rotate(-90 367.111 341.056)" fill="#565CF8"/>
<rect x="370.889" y="341.056" width="76.0556" height="1.88889" transform="rotate(-90 370.889 341.056)" fill="#565CF8"/>
<rect x="374.667" y="341.056" width="76.0556" height="1.88889" transform="rotate(-90 374.667 341.056)" fill="#565CF8"/>
<rect x="378.444" y="341.056" width="76.0556" height="1.88889" transform="rotate(-90 378.444 341.056)" fill="#565CF8"/>
<rect x="382.222" y="341.056" width="76.0556" height="1.88889" transform="rotate(-90 382.222 341.056)" fill="#565CF8"/>
</g>
<path d="M268 340H341L268 265V340Z" fill="#1C1ED0"/>
<path d="M195 340V265L104 340H195Z" fill="#7375FF"/>
<rect x="127" y="284" width="45" height="37" fill="#7375FF"/>
<path d="M172 321V284L127 321H172Z" fill="#1C1ED0"/>
<circle cx="339" cy="386" r="47" fill="#3D40D9"/>
<path d="M339 433C364.957 433 386 411.957 386 386H292C292 411.957 313.043 433 339 433Z" fill="#7375FF"/>
<circle cx="339" cy="386" r="31" fill="#3D40D9"/>
<path d="M339 355C321.879 355 308 368.879 308 386H370C370 368.879 356.121 355 339 355Z" fill="#7779F4"/>
<circle cx="339" cy="386" r="15" fill="#7375FF"/>
<path d="M339 371C330.716 371 324 377.716 324 386H354C354 377.716 347.284 371 339 371Z" fill="#3D40D9"/>
<rect x="239" y="322" width="29" height="3" fill="#565CF8"/>
<rect x="239" y="327" width="29" height="3" fill="#565CF8"/>
<rect x="239" y="332" width="29" height="3" fill="#565CF8"/>
<rect x="239" y="337" width="29" height="3" fill="#565CF8"/>
<rect x="239" y="317" width="29" height="3" fill="#565CF8"/>
<rect opacity="0.1" x="19" y="2" width="12" height="526" fill="url(#paint0_linear)"/>
</g>
<defs>
<filter id="filter0_dd" x="0" y="0" width="399" height="550" filterUnits="userSpaceOnUse" color-interpolation-filters="sRGB">
<feFlood flood-opacity="0" result="BackgroundImageFix"/>
<feColorMatrix in="SourceAlpha" type="matrix" values="0 0 0 0 0 0 0 0 0 0 0 0 0 0 0 0 0 0 127 0"/>
<feMorphology radius="3" operator="erode" in="SourceAlpha" result="effect1_dropShadow"/>
<feOffset dy="10"/>
<feGaussianBlur stdDeviation="7.5"/>
<feColorMatrix type="matrix" values="0 0 0 0 0 0 0 0 0 0 0 0 0 0 0 0 0 0 0.1 0"/>
<feBlend mode="normal" in2="BackgroundImageFix" result="effect1_dropShadow"/>
<feColorMatrix in="SourceAlpha" type="matrix" values="0 0 0 0 0 0 0 0 0 0 0 0 0 0 0 0 0 0 127 0"/>
<feMorphology radius="2" operator="erode" in="SourceAlpha" result="effect2_dropShadow"/>
<feOffset dy="4"/>
<feGaussianBlur stdDeviation="3"/>
<feColorMatrix type="matrix" values="0 0 0 0 0 0 0 0 0 0 0 0 0 0 0 0 0 0 0.05 0"/>
<feBlend mode="normal" in2="effect1_dropShadow" result="effect2_dropShadow"/>
<feBlend mode="normal" in="SourceGraphic" in2="effect2_dropShadow" result="shape"/>
</filter>
<linearGradient id="paint0_linear" x1="19" y1="140" x2="31" y2="140" gradientUnits="userSpaceOnUse">
<stop offset="0.229167" stop-opacity="0"/>
<stop offset="0.510417"/>
<stop offset="0.796875" stop-opacity="0"/>
</linearGradient>
</defs>
</svg>
