<svg width="40" height="40" viewBox="0 0 40 40" fill="none" xmlns="http://www.w3.org/2000/svg">
<path d="M22.0405 6.84991L23.5834 5.33036C26.6132 2.34636 31.5457 2.2725 34.5929 5.23931C35.7475 6.36599 36.5149 7.82059 36.7871 9.3988C37.0593 10.977 36.8226 12.5996 36.1104 14.0385C35.7688 14.7259 35.6537 15.5012 35.7811 16.2561C35.9086 17.011 36.2723 17.7079 36.8214 18.2494C37.8312 17.2526 38.6315 16.0696 39.1769 14.768C39.7222 13.4665 40.002 12.0718 40 10.6638C39.9978 9.25575 39.7143 7.86189 39.1652 6.56186C38.616 5.26181 37.8122 4.08107 36.7996 3.08708C32.5386 -1.08587 25.6222 -1.00283 21.3732 3.18184L6.66705 17.6654L5.45808 16.4746C2.37691 13.44 2.35727 8.47966 5.49279 5.49898C6.65342 4.39907 8.13209 3.68105 9.72471 3.44404C11.3173 3.20703 12.9454 3.46272 14.3841 4.1758C15.0408 4.50724 15.7871 4.6258 16.5163 4.51456C17.2455 4.40333 17.9204 4.06798 18.4445 3.55641L18.482 3.51967C18.4937 3.50826 18.503 3.49468 18.5093 3.47972C18.5156 3.46477 18.5188 3.44873 18.5188 3.43253C18.5188 3.41633 18.5156 3.40029 18.5093 3.38534C18.503 3.3704 18.4937 3.35682 18.482 3.34539C16.458 1.40196 13.7456 0.310344 10.9188 0.301519C8.09205 0.292695 5.37267 1.36735 3.33612 3.2981C-1.05084 7.4691 -1.03516 14.4051 3.2766 18.6517L17.9783 33.1313L16.4166 34.6694C13.3868 37.6534 8.45413 37.7273 5.40709 34.7604C4.25245 33.6338 3.48515 32.1791 3.21294 30.601C2.94075 29.0228 3.17731 27.4003 3.88942 25.9612C4.23107 25.2739 4.34621 24.4985 4.21879 23.7438C4.09134 22.9888 3.72768 22.2918 3.1786 21.7504C2.16886 22.7473 1.36844 23.9302 0.823048 25.2317C0.277654 26.5333 -0.00201563 27.9278 1.09353e-05 29.336C0.00203751 30.744 0.28572 32.1379 0.83486 33.4378C1.384 34.738 2.18783 35.9187 3.20042 36.9127C7.4612 41.0858 14.3778 41.003 18.6269 36.8181L33.352 22.3153L34.5656 23.5105C37.5953 26.4945 37.6703 31.3524 34.658 34.3535C33.5141 35.4908 32.0371 36.2464 30.4347 36.5147C28.8323 36.7827 27.1849 36.5496 25.7238 35.8482C25.0257 35.5115 24.2381 35.398 23.4713 35.5238C22.7045 35.6495 21.9967 36.008 21.447 36.5492C22.4591 37.5438 23.6602 38.3322 24.9816 38.8693C26.3033 39.4064 27.7192 39.6819 29.149 39.68C30.5785 39.6778 31.9938 39.3984 33.3137 38.8576C34.6338 38.3167 35.8327 37.525 36.8419 36.5278C41.079 32.3314 40.9947 25.5193 36.7458 21.3346L22.0405 6.84991ZM20.1737 30.9681L8.86301 19.8283L19.8444 9.01308L31.1551 20.1529L20.1737 30.9681Z" fill="#444BF7"/>
</svg>
